<svg width="40" height="40" viewBox="0 0 40 40" fill="none" xmlns="http://www.w3.org/2000/svg">
<path d="M34.1672 15.6839C34.1682 15.9863 34.1015 16.2851 33.9719 16.5583C33.8423 16.8315 33.6532 17.0723 33.4184 17.2628L21.2767 27.0395C20.9146 27.3372 20.4604 27.5 19.9917 27.5C19.523 27.5 19.0688 27.3372 18.7067 27.0395L6.56502 16.9187C6.15176 16.5751 5.89188 16.0814 5.84255 15.5461C5.79321 15.0109 5.95846 14.4779 6.30195 14.0646C6.64544 13.6512 7.13902 13.3912 7.67412 13.3419C8.20922 13.2926 8.74199 13.4578 9.15525 13.8014L20.0018 22.8495L30.8484 14.1051C31.1455 13.8575 31.5072 13.7003 31.8908 13.652C32.2743 13.6036 32.6637 13.6662 33.0129 13.8323C33.362 13.9984 33.6562 14.2611 33.8608 14.5892C34.0654 14.9173 34.1717 15.2972 34.1672 15.6839Z" fill="#F2F2F2"/>
</svg>
