<svg width="12" height="8" viewBox="0 0 12 8" fill="none" xmlns="http://www.w3.org/2000/svg">
<path d="M11.9999 1.32738C12.0004 1.49815 11.9721 1.66688 11.9172 1.82117C11.8624 1.97546 11.7823 2.11139 11.6828 2.21897L6.54046 7.73997C6.3871 7.90809 6.19474 8 5.99622 8C5.79771 8 5.60534 7.90809 5.45199 7.73997L0.309615 2.02465C0.134589 1.83063 0.0245213 1.55183 0.00362636 1.24957C-0.0172686 0.947313 0.0527207 0.646367 0.198197 0.412934C0.343674 0.179502 0.552721 0.0327048 0.779351 0.00483748C1.00598 -0.0230303 1.23163 0.0703134 1.40665 0.264336L6.00051 5.37383L10.5944 0.435795C10.7202 0.296018 10.8734 0.207228 11.0358 0.179932C11.1983 0.152637 11.3632 0.187976 11.5111 0.281772C11.6589 0.375566 11.7835 0.52389 11.8702 0.709192C11.9568 0.894494 12.0019 1.10902 11.9999 1.32738Z" fill="white"/>
</svg>