<svg width="68" height="68" viewBox="0 0 68 68" fill="none" xmlns="http://www.w3.org/2000/svg">
<g id="favorite-event">
<g id="Group">
<g id="Group_2">
<g id="Group_3">
<g id="Group_4">
<g id="Group_5">
<g id="Group_6">
<g id="Group_7">
<g id="Group_8">
<g id="Group_9">
<g id="Group_10">
<g id="Group_11">
<g id="Group_12">
<g id="Group_13">
<g id="Group_14">
<path id="Vector" d="M14.8776 13.4809H53.1305C57.8399 13.4809 61.6312 17.2722 61.6312 21.9816V53.142C61.6312 57.8514 57.8399 61.6427 53.1305 61.6427H14.8776C10.1683 61.6427 6.37695 57.8514 6.37695 53.142V21.9816C6.37695 17.2722 10.1683 13.4809 14.8776 13.4809Z" stroke="#19486A" stroke-width="2.4" stroke-linecap="round" stroke-linejoin="round"/>
<g id="Group_15">
<path id="Vector_2" d="M22.2094 21.7688C19.8547 21.7688 17.959 19.8731 17.959 17.5184V10.6117C17.959 8.257 19.8547 6.36133 22.2094 6.36133C24.5641 6.36133 26.4597 8.257 26.4597 10.6117V12.8032M45.7854 21.7688C43.4307 21.7688 41.5351 19.8731 41.5351 17.5184V10.6117C41.5351 8.257 43.4307 6.36133 45.7854 6.36133C48.1402 6.36133 50.0358 8.257 50.0358 10.6117V12.8032" stroke="#19486A" stroke-width="2.4" stroke-linecap="round" stroke-linejoin="round"/>
</g>
<path id="Vector_3" d="M34.0315 48.1278C31.4783 48.1313 28.5387 52.172 26.4701 50.6753C24.4016 49.1786 27.3189 45.1232 26.5231 42.6965C25.7294 40.2696 20.9646 38.7219 21.749 36.292C22.5332 33.8622 27.3063 35.3841 29.369 33.8792C31.4318 32.3744 31.4358 27.3787 33.9891 27.3738C36.5423 27.3701 36.5657 32.3644 38.6343 33.8612C40.7028 35.3581 45.4626 33.8178 46.2563 36.2449C47.05 38.6717 42.2988 40.2375 41.5145 42.6673C40.7302 45.0972 43.6634 49.1411 41.6012 50.6459C39.5385 52.1506 36.5848 48.1229 34.0315 48.1278Z" stroke="#19486A" stroke-width="2.4" stroke-linecap="round" stroke-linejoin="round"/>
</g>
</g>
</g>
</g>
</g>
</g>
</g>
</g>
</g>
</g>
</g>
</g>
</g>
</g>
</g>
</svg>
