<svg width="318" height="467" viewBox="0 0 318 467" fill="none" xmlns="http://www.w3.org/2000/svg">
<path d="M498.01 445.776C491.014 457.887 480.828 468.389 467.837 475.901L123.79 674.366C84.3451 697.124 33.8749 683.617 11.0781 644.185C-11.7187 604.75 1.79307 554.312 41.2827 531.546L385.301 333.065C424.763 310.283 475.217 323.814 498.014 363.25C513.298 389.699 512.24 421.082 497.981 445.764L498.01 445.78V445.776Z" fill="#0397D6"/>
<path d="M401.79 445.718C380.682 445.718 359.575 437.668 343.471 421.56L62.7028 140.786C30.4948 108.579 30.4948 56.3626 62.7028 24.1554C94.9107 -8.0518 147.129 -8.0518 179.336 24.1554L460.109 304.933C492.317 337.141 492.317 389.357 460.109 421.564C444.009 437.664 422.897 445.718 401.794 445.718H401.79Z" fill="url(#paint0_linear_10426_30022)"/>
<defs>
<linearGradient id="paint0_linear_10426_30022" x1="118.827" y1="77.978" x2="386.253" y2="349.732" gradientUnits="userSpaceOnUse">
<stop offset="0.423077" stop-color="#E81F77" stop-opacity="0"/>
<stop offset="0.97" stop-color="#E81F77"/>
</linearGradient>
</defs>
</svg>
