<svg width="1440" height="501" viewBox="0 0 1440 501" fill="none" xmlns="http://www.w3.org/2000/svg">
<path d="M1539.16 569.717C1517.2 607.732 1485.23 640.694 1444.45 664.272L364.555 1287.22C240.743 1358.65 82.3269 1316.25 10.7721 1192.49C-60.7827 1068.7 -18.3719 910.391 105.579 838.933L1185.39 215.937C1309.25 144.429 1467.62 186.901 1539.17 310.682C1587.14 393.701 1583.82 492.207 1539.07 569.679L1539.16 569.73V569.717Z" fill="#0397D6"/>
<path d="M1321.89 693.267C1255.64 693.267 1189.39 668 1138.84 617.442L257.56 -263.855C156.465 -364.947 156.465 -528.845 257.56 -629.938C358.654 -731.03 522.556 -731.03 623.651 -629.938L1504.94 251.371C1606.04 352.464 1606.04 516.362 1504.94 617.454C1454.41 667.988 1388.14 693.267 1321.9 693.267H1321.89Z" fill="url(#paint0_linear_9841_5701)"/>
<defs>
<linearGradient id="paint0_linear_9841_5701" x1="433.722" y1="-460.999" x2="1273.12" y2="391.985" gradientUnits="userSpaceOnUse">
<stop offset="0.423077" stop-color="#E81F77" stop-opacity="0"/>
<stop offset="0.97" stop-color="#E81F77"/>
</linearGradient>
</defs>
</svg>
