<svg width="16" height="16" viewBox="0 0 16 16" fill="none" xmlns="http://www.w3.org/2000/svg">
<path d="M15.519 6.99668H13.7787C13.6799 6.99668 13.5854 7.03965 13.5188 7.11484L8.81584 12.5354V0.4375C8.81584 0.342969 8.7385 0.265625 8.64397 0.265625H7.35491C7.26038 0.265625 7.18303 0.342969 7.18303 0.4375V12.5354L2.4801 7.11484C2.41565 7.03965 2.32112 6.99668 2.22014 6.99668H0.479907C0.333814 6.99668 0.254321 7.1707 0.351001 7.28027L7.48166 15.498C7.54612 15.5724 7.62581 15.632 7.71533 15.6729C7.80485 15.7138 7.9021 15.7349 8.00051 15.7349C8.09892 15.7349 8.19618 15.7138 8.2857 15.6729C8.37522 15.632 8.4549 15.5724 8.51936 15.498L15.6479 7.28027C15.7446 7.16855 15.6651 6.99668 15.519 6.99668Z" fill="#202056"/>
</svg>
