<svg width="70" height="70" viewBox="0 0 70 70" fill="none" xmlns="http://www.w3.org/2000/svg">
<circle cx="35" cy="35" r="35" fill="#19486A"/>
<g clip-path="url(#clip0_2902_24715)">
<path d="M38.5733 40.4005L34.9199 44.0539C33.6565 45.3174 32.1342 45.9491 30.3532 45.9491C28.5722 45.9491 27.0499 45.3174 25.7865 44.0539C24.523 42.7905 23.8913 41.2682 23.8913 39.4872C23.8913 37.7062 24.523 36.1839 25.7865 34.9205L29.4398 31.2671L31.2665 33.0938L27.6131 36.7471C26.852 37.5083 26.4715 38.4216 26.4715 39.4872C26.4715 40.5528 26.852 41.4661 27.6131 42.2272C28.3743 42.9883 29.2876 43.3689 30.3532 43.3689C31.4188 43.3689 32.3321 42.9883 33.0932 42.2272L36.7466 38.5738L38.5733 40.4005ZM32.1799 39.4872L30.3532 37.6605L37.66 30.3537L39.4867 32.1804L32.1799 39.4872ZM40.4 38.5738L38.5733 36.7471L42.2267 33.0938C42.9878 32.3326 43.3684 31.4193 43.3684 30.3537C43.3684 29.2882 42.9878 28.3748 42.2267 27.6137C41.4656 26.8526 40.5522 26.472 39.4867 26.472C38.4211 26.472 37.5077 26.8526 36.7466 27.6137L33.0932 31.2671L31.2665 29.4404L34.9199 25.787C36.1834 24.5235 37.7056 23.8918 39.4867 23.8918C41.2677 23.8918 42.7899 24.5235 44.0534 25.787C45.3168 27.0505 45.9486 28.5727 45.9486 30.3537C45.9486 32.1347 45.3168 33.657 44.0534 34.9205L40.4 38.5738Z" fill="white"/>
</g>
<defs>
<clipPath id="clip0_2902_24715">
<rect width="31" height="31" fill="white" transform="translate(13 34.9204) rotate(-45)"/>
</clipPath>
</defs>
</svg>
