<svg width="68" height="68" viewBox="0 0 68 68" fill="none" xmlns="http://www.w3.org/2000/svg">
<g id="mic">
<path id="Vector" d="M33.893 46.24H34.1051C39.9606 46.24 44.7091 41.4943 44.7091 35.6388V14.0026C44.7091 8.14775 39.9606 3.39999 34.1051 3.39999H33.893C28.0355 3.39999 23.2891 8.14775 23.2891 14.0026V35.6388C23.2891 41.4943 28.0355 46.24 33.893 46.24ZM26.3491 14.0026C26.3491 9.84435 29.7334 6.45999 33.893 6.45999H34.1051C38.2647 6.45999 41.6491 9.84435 41.6491 14.0026V35.6388C41.6491 39.7956 38.2647 43.18 34.1051 43.18H33.893C29.7334 43.18 26.3491 39.7956 26.3491 35.6388V14.0026Z" fill="#FF763B"/>
<path id="Vector_2" d="M47.7699 24.82V35.6986C47.7699 43.199 41.669 49.3 34.1672 49.3H33.8326C26.3309 49.3 20.2299 43.199 20.2299 35.6986V24.82H17.1699V35.6986C17.1699 44.4407 23.9053 51.5977 32.4699 52.2906V61.54H23.2899V64.6H44.7099V61.54H35.5299V52.2906C44.0945 51.597 50.8299 44.4407 50.8299 35.6986V24.82H47.7699Z" fill="#FF763B"/>
</g>
</svg>
