<svg width="71" height="68" viewBox="0 0 71 68" fill="none" xmlns="http://www.w3.org/2000/svg">
<g id="play">
<g id="Group">
<g id="Group_2">
<path id="Vector" fill-rule="evenodd" clip-rule="evenodd" d="M35.1147 0C16.3739 0 1.13281 15.2479 1.13281 33.9909C1.13281 52.7317 16.3762 67.9728 35.1147 67.9728C53.8532 67.9728 69.1101 52.7295 69.1101 33.9909C69.1101 15.2479 53.8555 0 35.1147 0ZM35.1147 65.5338C17.7203 65.5338 3.57172 51.3899 3.57172 33.9909C3.57172 16.592 17.7203 2.43891 35.1147 2.43891C52.5136 2.43891 66.6712 16.592 66.6712 33.9909C66.6712 51.3899 52.5136 65.5338 35.1147 65.5338ZM50.4374 30.7722L29.1601 18.9606C26.2611 17.349 23.4844 19.0581 23.4844 22.304V45.671C23.4844 48.0578 24.8557 49.665 26.8935 49.665C27.6279 49.665 28.394 49.4473 29.1647 49.0189L50.4374 37.2028C51.845 36.4231 52.6564 35.2512 52.6564 33.9932C52.6564 32.7352 51.845 31.561 50.4374 30.7722ZM49.2519 35.0676L27.9838 46.8837C27.5803 47.1058 27.2085 47.2238 26.8957 47.2238C26.0548 47.2238 25.9256 46.2536 25.9256 45.6688V22.304C25.9256 21.7237 26.0548 20.7536 26.8957 20.7536C27.2108 20.7536 27.5826 20.8737 27.9838 21.0936L49.2519 32.9052C49.8457 33.2361 50.2175 33.6532 50.2175 33.9909C50.2152 34.3241 49.8435 34.739 49.2519 35.0676Z" fill="#00AD74"/>
</g>
</g>
</g>
</svg>
