<svg width="76" height="76" viewBox="0 0 76 76" fill="none" xmlns="http://www.w3.org/2000/svg">
<g clip-path="url(#clip0_5413_4158)">
<path fill-rule="evenodd" clip-rule="evenodd" d="M38 72.2C56.8879 72.2 72.2 56.8879 72.2 38C72.2 19.1121 56.8879 3.8 38 3.8C19.1121 3.8 3.8 19.1121 3.8 38C3.8 56.8879 19.1121 72.2 38 72.2ZM38 76C58.9874 76 76 58.9874 76 38C76 17.0126 58.9874 0 38 0C17.0126 0 0 17.0126 0 38C0 58.9874 17.0126 76 38 76Z" fill="#0397D6"/>
<path d="M15.1992 60.0972C15.1992 58.1345 16.666 56.4758 18.6192 56.2592C33.2777 54.6366 42.7872 54.7829 57.4134 56.2953C58.1438 56.372 58.836 56.6597 59.4056 57.1233C59.9751 57.587 60.3973 58.2064 60.6206 58.9061C60.8438 59.6057 60.8585 60.3552 60.6628 61.0631C60.4672 61.7709 60.0696 62.4065 59.5186 62.8921C42.2571 77.9382 32.3923 77.7311 16.4152 62.9073C15.6362 62.1853 15.1992 61.1593 15.1992 60.0991V60.0972Z" fill="#0397D6"/>
<path fill-rule="evenodd" clip-rule="evenodd" d="M57.2193 58.1837C42.709 56.6827 33.3363 56.5421 18.8279 58.1476C17.8513 58.2559 17.1008 59.09 17.1008 60.0989C17.1008 60.6423 17.3269 61.1572 17.7088 61.5144C25.628 68.8598 31.6282 72.1791 37.4935 72.2C43.3797 72.2209 49.7029 68.9282 58.2719 61.4612C58.5441 61.2189 58.7401 60.9027 58.836 60.5511C58.9319 60.1995 58.9236 59.8276 58.8121 59.4807C58.7006 59.1337 58.4907 58.8266 58.208 58.5967C57.9252 58.3668 57.5817 58.2239 57.2193 58.1856V58.1837ZM18.4118 54.3704C33.2242 52.7307 42.8724 52.8789 57.6126 54.4046C58.7114 54.5193 59.7529 54.9518 60.6096 55.6493C61.4663 56.3468 62.1011 57.279 62.4362 58.3316C62.7713 59.3843 62.7922 60.5119 62.4963 61.5763C62.2005 62.6407 61.6007 63.5957 60.7704 64.3245C52.0779 71.9017 44.8389 76.0285 37.4821 76C30.1044 75.9734 23.1846 71.7763 15.1267 64.2998C14.5498 63.7624 14.0898 63.1118 13.7757 62.3887C13.4615 61.6656 13.2999 60.8854 13.3008 60.097C13.298 58.6804 13.818 57.3126 14.7611 56.2556C15.7042 55.1985 17.0041 54.5266 18.4118 54.3685V54.3704Z" fill="#0397D6"/>
<path d="M53.2008 30.4C53.2008 34.4312 51.5994 38.2974 48.7488 41.148C45.8983 43.9985 42.0321 45.6 38.0008 45.6C33.9695 45.6 30.1033 43.9985 27.2528 41.148C24.4022 38.2974 22.8008 34.4312 22.8008 30.4C22.8008 26.3687 24.4022 22.5025 27.2528 19.6519C30.1033 16.8014 33.9695 15.2 38.0008 15.2C42.0321 15.2 45.8983 16.8014 48.7488 19.6519C51.5994 22.5025 53.2008 26.3687 53.2008 30.4V30.4Z" fill="#0397D6"/>
<path fill-rule="evenodd" clip-rule="evenodd" d="M38.0008 41.8C41.0242 41.8 43.9239 40.5989 46.0618 38.461C48.1997 36.3231 49.4008 33.4234 49.4008 30.4C49.4008 27.3765 48.1997 24.4768 46.0618 22.3389C43.9239 20.201 41.0242 19 38.0008 19C34.9773 19 32.0777 20.201 29.9398 22.3389C27.8018 24.4768 26.6008 27.3765 26.6008 30.4C26.6008 33.4234 27.8018 36.3231 29.9398 38.461C32.0777 40.5989 34.9773 41.8 38.0008 41.8V41.8ZM38.0008 45.6C42.0321 45.6 45.8983 43.9985 48.7488 41.148C51.5994 38.2974 53.2008 34.4312 53.2008 30.4C53.2008 26.3687 51.5994 22.5025 48.7488 19.6519C45.8983 16.8014 42.0321 15.2 38.0008 15.2C33.9695 15.2 30.1033 16.8014 27.2528 19.6519C24.4022 22.5025 22.8008 26.3687 22.8008 30.4C22.8008 34.4312 24.4022 38.2974 27.2528 41.148C30.1033 43.9985 33.9695 45.6 38.0008 45.6V45.6Z" fill="#0397D6"/>
</g>
<defs>
<clipPath id="clip0_5413_4158">
<rect width="76" height="76" fill="white"/>
</clipPath>
</defs>
</svg>
