<?xml version="1.0" encoding="utf-8"?>
<!-- Generator: Adobe Illustrator 25.0.1, SVG Export Plug-In . SVG Version: 6.00 Build 0)  -->
<svg version="1.1" id="Layer_1" xmlns="http://www.w3.org/2000/svg" xmlns:xlink="http://www.w3.org/1999/xlink" x="0px" y="0px"
	 viewBox="0 0 136.9 38.1" style="enable-background:new 0 0 136.9 38.1;" xml:space="preserve">
<style type="text/css">
	.st0{filter:url(#Adobe_OpacityMaskFilter);}
	.st1{fill-rule:evenodd;clip-rule:evenodd;fill:#FFFFFF;}
	.st2{mask:url(#mask-2_1_);}
	.st3{fill-rule:evenodd;clip-rule:evenodd;fill:#0091C6;}
	.st4{fill-rule:evenodd;clip-rule:evenodd;fill:#68AFD5;}
</style>
<g id="Navigation-_x26_-Footer">
	<g id="Navigation-_x2F_-Extra-Large-_x28_Desktop_x29_-_x2F_-News-and-Stories" transform="translate(-50.000000, -62.000000)">
		<g id="UNWomen_WomenCount_logo_lockup_NoTag_FullColour_CMYK" transform="translate(50.000000, 62.000000)">
			<g id="Mask">
			</g>
			<defs>
				<filter id="Adobe_OpacityMaskFilter" filterUnits="userSpaceOnUse" x="0" y="0" width="136.9" height="38.1">
					<feColorMatrix  type="matrix" values="1 0 0 0 0  0 1 0 0 0  0 0 1 0 0  0 0 0 1 0"/>
				</filter>
			</defs>
			<mask maskUnits="userSpaceOnUse" x="0" y="0" width="136.9" height="38.1" id="mask-2_1_">
				<g class="st0">
					<rect id="path-1_1_" y="-8.5" class="st1" width="140.8" height="55"/>
				</g>
			</mask>
			<g class="st2">
				<path id="Fill-29" class="st3" d="M72.6,17.8c-4.7,0-7.6-2.6-7.6-7.8V0h3.8v9.9c0,2.8,1.4,4.3,3.8,4.3s3.8-1.4,3.8-4.2V0h3.8
					v9.9C80.3,15.2,77.3,17.8,72.6,17.8"/>
				<polyline id="Fill-30" class="st3" points="95.5,17.8 86.7,6.5 86.7,17.8 82.8,17.8 82.8,0 86.5,0 94.9,10.9 94.9,0 98.9,0 
					98.9,17.8 95.5,17.8 				"/>
				<polyline id="Fill-31" class="st3" points="21,38.1 17.5,38.1 13.5,26.6 9.5,38.1 6.1,38.1 0,20.4 4.2,20.4 7.9,32.3 11.9,20.3 
					15.3,20.3 19.2,32.3 22.9,20.4 27,20.4 21,38.1 				"/>
				<path id="Fill-32" class="st3" d="M40.8,29.2c0-2.9-2.2-5.4-5.3-5.4c-3.1,0-5.2,2.4-5.2,5.4v0c0,2.9,2.2,5.4,5.3,5.4
					S40.8,32.2,40.8,29.2L40.8,29.2z M35.5,38.1c-5.4,0-9.3-4-9.3-8.8v0c0-4.9,3.9-8.9,9.3-8.9s9.3,3.9,9.3,8.8v0
					C44.8,34.1,40.9,38.1,35.5,38.1L35.5,38.1z"/>
				<polyline id="Fill-33" class="st3" points="60.3,38.1 60.3,26.5 55.3,34.1 55.2,34.1 50.3,26.6 50.3,38.1 46.5,38.1 46.5,20.3 
					50.7,20.3 55.3,27.8 60,20.3 64.2,20.3 64.2,38.1 60.3,38.1 				"/>
				<polyline id="Fill-34" class="st3" points="66.8,38.1 66.8,20.3 80.1,20.3 80.1,23.8 70.6,23.8 70.6,27.4 79,27.4 79,30.9 
					70.6,30.9 70.6,34.6 80.3,34.6 80.3,38.1 66.8,38.1 				"/>
				<polyline id="Fill-35" class="st3" points="95.5,38.1 86.7,26.8 86.7,38.1 82.8,38.1 82.8,20.3 86.5,20.3 94.9,31.2 94.9,20.3 
					98.9,20.3 98.9,38.1 95.5,38.1 				"/>
				<path id="Fill-36" class="st3" d="M56,16.2c-1.2-0.5-2.6-1.1-4-0.6c-0.7-0.2-1.6-0.2-2.3,0c-1.2,0.6-2.9,1.4-4.2,0.5
					c0.2,0.3,0.5,0.4,0.8,0.6c0.8,0.5,2.1,0.5,2.9,0c0.8-0.3,1.4-1.3,2.4-1c-0.9,0.4-1.7,0.9-2.4,1.7l0.4,0.4
					c0.6-0.8,1.5-1.5,2.4-1.9c0.9,0.4,1.7,1.2,2.4,1.9l0.4-0.4c-0.7-0.7-1.5-1.2-2.4-1.6c0.2-0.1,0.5,0,0.7,0
					c0.9,0.4,1.6,1.2,2.6,1.3c1.1,0.2,2.1-0.3,2.7-1.1L58,16.2C57.4,16.5,56.6,16.4,56,16.2z M45.9,13c0.5,0.6,0.6,1.5,1.3,2
					c0.3,0.3,0.7,0.3,1,0.4c-0.4,0-0.7-0.1-1-0.1c-1.2-0.1-2.6,0-3.5-1c0.4,0.7,1.1,1.3,1.8,1.5c1.4,0.5,2.7-0.2,4-0.4
					C48,15.4,47.1,13.7,45.9,13z M58,12.9c-0.8,0.5-1.5,1.4-2.2,2c-0.4,0.3-0.9,0.4-1.4,0.5c1.1,0.1,1.9,0.6,3,0.5
					c1.2,0,2.3-0.7,2.8-1.8c-0.8,1-2.1,0.9-3.3,1c-0.4,0-0.8,0.2-1.2,0.2c0,0,0,0,0,0C57.1,15.2,57.5,13.8,58,12.9z M52.1,12.1
					l0.1,0.1l0,0.9c0.3-0.1,0.6-0.1,0.9-0.1c-0.1-0.1-0.3-0.1-0.4-0.3c-0.1-0.1,0-0.3,0-0.4C52.4,12.1,52.2,12.2,52.1,12.1z
					 M47.8,11.8L47,12.6c1.3,1.2,2.9,1.8,4.7,1.9l0-0.1c0-0.3,0-0.7,0-1l0,0C50.2,13.4,48.9,12.8,47.8,11.8z M56.1,11.7
					c-0.2,0.2-0.4,0.4-0.6,0.5c-0.7,0.3-0.8,1.1-1.5,1.3c-0.3,0.1-0.4-0.3-0.7-0.3c-0.4,0.1-0.8,0.2-1.2,0.1v1.2l0,0
					c1.8-0.1,3.4-0.8,4.7-2C56.6,12.3,56.3,12,56.1,11.7z M49.2,11.1c0,0.1,0.2,0.1,0.1,0.3c-0.2,0.1-0.5,0-0.8,0.2
					c-0.2,0.1-0.4-0.1-0.5-0.1c1,0.9,2.2,1.5,3.6,1.5l0.1,0c-0.1-0.3,0-0.7,0-1.1C50.8,12,49.9,11.6,49.2,11.1z M49.1,11l0.1,0.1
					L49.1,11z M44.4,10.8l0.2,0.5c0.2,1.2,0.3,2.4,1.3,3.2l0,0c-0.3-0.1-0.6-0.4-0.9-0.6c-1-0.6-2.4-0.9-2.9-2.1
					c0.2,0.9,0.8,1.7,1.5,2.3c0.9,0.8,2.1,0.7,3.2,1c-0.4-0.3-0.6-0.7-0.8-1.1C45.6,12.8,45.3,11.6,44.4,10.8z M55,10.7L55,10.7
					c-0.5,0.4,0.3,0.4,0.3,0.7c-0.1,0.2-0.4,0.3-0.2,0.5c0.1,0.1,0,0.1,0,0.2l0.7-0.6c-0.1,0.1-0.2,0-0.3-0.1
					C55.6,11.1,55.2,11,55,10.7z M59.5,10.6l-0.6,0.8c-0.8,1.1-0.7,2.6-1.8,3.5c0.6-0.2,1.2-0.3,1.8-0.4c1.3-0.3,2.7-1.6,2.9-3
					c-0.2,0.6-0.7,1-1.2,1.3c-0.9,0.4-1.8,0.9-2.5,1.5H58l0-0.1C59.3,13.4,59,11.8,59.5,10.6z M49.9,9.8c-0.2,0.3-0.5,0.5-0.8,0.7h0
					c0.6,0.5,1.4,0.9,2.1,1c-0.3,0-0.4-0.3-0.5-0.5c-0.1-0.2,0.2-0.2,0.1-0.4c0.1-0.1,0.2-0.2,0.4-0.3c-0.1,0-0.2,0-0.3,0
					C50.6,10.3,50.2,10.1,49.9,9.8z M53.5,9.6c-0.1,0-0.1,0-0.2,0.1c-0.1,0.1-0.2,0-0.3,0c0,0,0.1,0.1,0,0.2c-0.1,0.1-0.2,0-0.3-0.1
					c0,0.3-0.2-0.1-0.3,0c-0.1-0.2-0.2,0-0.3,0c-0.1,0.1-0.1,0.3-0.3,0.2c0,0.1-0.2,0.1-0.2,0.1c0.1,0.1,0.2,0,0.3,0
					c0.1-0.1,0.3,0,0.5-0.1c0,0.3,0.3,0.1,0.4,0.2c0.1,0,0.1-0.1,0.1-0.2c0.2,0,0.4-0.2,0.6-0.3C53.5,9.8,53.5,9.7,53.5,9.6z
					 M53.1,9.5c0.1-0.1,0.3-0.1,0.3-0.2C53.2,9.2,53,9.3,53.1,9.5z M50.9,8.7l-0.7,0.8c0.4,0.3,0.8,0.5,1.3,0.6c0-0.1,0-0.3,0.1-0.4
					c0.1,0,0.2,0,0.2,0c0-0.1,0-0.1-0.1-0.1c0-0.1,0-0.2,0-0.2c0,0-0.1-0.2,0-0.2c-0.2,0.1-0.4,0-0.6-0.1
					C51.1,8.9,50.9,8.9,50.9,8.7z M55.4,8.7c-0.2-0.2-0.2,0.1-0.3,0.1C55,8.8,55,8.8,55,8.7c0,0.2-0.1,0.3-0.2,0.4
					c-0.3-0.1-0.2,0.4-0.6,0.3c0,0.1,0.2,0,0.3,0c0.1,0,0-0.1,0.1-0.1c0-0.1,0.2-0.2,0.3-0.1c0.1,0.1,0.1,0.2,0.1,0.4
					c-0.1,0.1-0.1,0.1-0.1,0.2c-0.1,0.2-0.1,0.5-0.4,0.5c-0.3-0.1-0.6-0.2-1-0.2v0.1c0.2,0.1,0.5,0.1,0.7,0.2c0.2,0,0.4,0,0.6-0.1
					c0-0.1,0.1-0.3,0.2-0.4c0.1,0,0.1,0.2,0.2,0.3c0.4-0.5,0.7-0.9,0.8-1.5C55.7,8.7,55.6,8.8,55.4,8.7z M43.7,8.7
					c0.1,0.5-0.1,0.9-0.1,1.3c-0.2,0.8-0.1,1.7,0.4,2.4c-0.2-0.1-0.3-0.3-0.4-0.4c-0.6-1.1-2-1.7-2.2-3.1c0,0.5,0,1,0.1,1.4
					c0.4,1.5,2.1,2.3,3.2,3C43.9,11.9,44.3,10.1,43.7,8.7z M53.5,8.6c-0.2,0.2,0.1,0.2,0.2,0.4c0,0,0.1,0,0.1,0c0-0.1,0-0.2-0.1-0.2
					C53.6,8.8,53.6,8.6,53.5,8.6z M60.2,8.5c-0.7,1.4-0.2,3.3-1,4.7l0.1-0.1c1.6-0.9,3.5-2.3,3.2-4.4c0,0.3-0.1,0.5-0.3,0.8
					c-0.6,1-1.7,1.7-2.2,2.7c0,0-0.1,0.1-0.1,0l0.1-0.1C60.8,11,60.2,9.7,60.2,8.5z M50.5,8.4c0,0.1-0.1,0.2-0.2,0.3
					c0.1,0,0.2-0.2,0.3-0.2L50.5,8.4z M49.4,8.1l0.1,0.1c0.1,0.3,0.3,0.6,0.5,1l0.3-0.3c0,0,0-0.1,0-0.1c-0.1-0.1,0-0.2-0.1-0.3
					c0,0.1,0.1,0.1,0,0.2c-0.1,0-0.2-0.1-0.3-0.2c0-0.2-0.1,0-0.2-0.1C49.7,8.1,49.4,8.2,49.4,8.1z M46.3,7.7L46.3,7.7
					c0.1,0.5,0.2,1,0.3,1.5c0.1,0,0-0.2,0.1-0.2c0-0.2,0.1-0.5,0.2-0.7c0.2,0,0.2-0.3,0.5-0.3c0.1,0,0.1,0.1,0.2,0.2
					c-0.1-0.1-0.1-0.4-0.1-0.5C47.1,7.7,46.7,7.7,46.3,7.7z M44.8,7.7c0.1,1.8,0.7,3.3,1.9,4.6c0.3-0.3,0.5-0.6,0.8-0.8
					c-0.1-0.1-0.2-0.3-0.4-0.4c-0.2,0-0.3-0.2-0.3-0.3c0,0,0,0,0,0c-0.2,0.1-0.2-0.1-0.3-0.2c-0.1,0,0-0.3-0.2-0.2
					c-0.1-0.2-0.3-0.1-0.3-0.3l-0.1,0.1c-0.1,0-0.2-0.2-0.3-0.2c-0.3,0.1-0.2-0.3-0.3-0.4c-0.1-0.2,0-0.4,0.1-0.6
					c0.1-0.1,0.2,0,0.3,0c0.1,0,0-0.1,0.1-0.1C46,8.8,46.1,9,46.2,9.1c-0.2-0.4-0.3-1-0.2-1.4C45.6,7.7,45.2,7.7,44.8,7.7z
					 M47.8,7.6c0.1,0.3,0.2,0.5,0.1,0.8c0-0.1,0.3-0.3,0.1-0.4C48,8,48,7.7,48.1,7.7C48,7.7,47.9,7.7,47.8,7.6z M56.5,7.6
					c0,0.1,0,0.3,0,0.4c-0.1,0.2,0.2,0.3,0.1,0.5c-0.1,0-0.1,0-0.2,0c-0.2,0.7-0.5,1.3-1,1.8h0c0.1,0.1,0.2,0.3,0.4,0.3v-0.1
					c0,0,0-0.1,0.1,0c0.3,0.1,0.3,0.5,0.3,0.6c0.7-0.7,1.2-1.6,1.4-2.6c0.1-0.3,0-0.7,0.2-1C57.2,7.7,56.8,7.7,56.5,7.6z M57.9,7.6
					L57.9,7.6c0,1.5-0.6,2.9-1.6,3.9c0.3,0.2,0.6,0.5,0.8,0.8c0.9-1.1,1.6-2.3,1.8-3.6C59,8.3,59,7.9,59.1,7.6
					C58.8,7.7,58.4,7.6,57.9,7.6L57.9,7.6z M55.4,7.6l0.2,0.2c0,0.2,0.3,0.3,0.3,0.6C56,8.2,56,7.9,56.1,7.7
					C55.9,7.6,55.6,7.7,55.4,7.6z M55.6,7.3L55.6,7.3L55.6,7.3z M48.7,7.1c-0.3,0.1,0,0.3,0,0.5c0,0.1-0.2,0-0.2,0.1
					c0,0.2-0.1,0.3-0.3,0.3c0,0.1,0.1,0.2,0,0.4c0.2,0.2,0.3,0.4,0.3,0.7c0.1,0.2,0.1,0.5,0.1,0.7c0.1,0.1,0.2,0.3,0.2,0.5
					c0,0.1-0.1,0.1-0.1,0.2c-0.1,0.1,0,0,0,0.1l0.9-1c-0.3-0.4-0.6-0.9-0.7-1.4L48.8,8c0,0.1,0,0.3-0.1,0.4
					c-0.1-0.1-0.2-0.1-0.2-0.2c0-0.1,0.1,0,0.2,0c0-0.1,0-0.1,0-0.2c0-0.1-0.1-0.1,0-0.2c0.1,0,0.1,0.1,0.2,0.1L49,7.8
					c0-0.2,0-0.4,0-0.6C48.9,7.1,48.8,7.1,48.7,7.1z M51.7,6.2L51.7,6.2c0,0.1,0.1,0.3,0,0.3c-0.1,0.2-0.4,0.1-0.5,0.4
					C50.9,7,51,7.4,50.9,7.7c-0.2,0-0.1-0.2-0.2-0.3l0,0.1c-0.3-0.2-0.3,0.3-0.5,0.3c0.2,0,0.4-0.1,0.6-0.1c0,0,0.1,0,0,0.1h0
					c0,0,0.1-0.1,0-0.2c0-0.1,0.1-0.1,0.2-0.1c0,0.1,0,0.1,0.1,0.2l-0.1,0.2c-0.1,0.1,0,0.3-0.1,0.2c0,0-0.1,0,0-0.1h0l0.1,0.2
					C51,8.2,51,8,51.1,8c0.1,0,0.1-0.2,0.1-0.3c0.1-0.1,0.3,0,0.5-0.1c0,0,0.1,0.1,0.1,0.1c0.1,0.1,0,0.3-0.1,0.4
					c0,0.1-0.1,0.1-0.1,0.2c-0.1,0.1-0.3,0.1-0.5,0.1c0.2,0.2,0.5,0.3,0.8,0.2c0.3,0,0.1-0.3,0.3-0.4c0.1,0,0.2,0,0.4,0
					c0.1-0.1,0.1-0.2,0.1-0.3c-0.1-0.1-0.1-0.2-0.1-0.3c-0.1-0.1-0.1-0.2-0.2-0.2c0-0.1,0.1-0.1,0-0.2c0.2-0.1-0.1-0.2,0-0.3
					c-0.2,0-0.3-0.4-0.6-0.3C51.9,6.5,51.7,6.4,51.7,6.2c0.1,0,0.3,0,0.3,0c0,0,0,0,0-0.1C51.8,6.2,51.7,6.2,51.7,6.2z M41.7,5.8
					c-0.4,0.8-0.3,1.9-0.1,2.8c0.2,0.9,1.1,1.5,1.5,2.3c-0.1-0.3-0.1-0.7,0-1.1c0.3-1.2,0.8-2.3,0.7-3.6c-0.2,0.9-1,1.6-1.1,2.5
					c-0.1,0.4,0,0.8,0.1,1.1c-0.1-0.2-0.2-0.4-0.2-0.6C42.5,8,41.5,7.1,41.7,5.8z M62.2,5.6c0.2,1.1-0.5,2-0.8,3
					c-0.2,0.4-0.1,0.9-0.3,1.2c0-0.2,0.1-0.4,0.1-0.6c0.2-1.3-0.9-2-1.2-3.1c0,0.3,0,0.6,0,0.8c0.1,1.3,0.9,2.4,0.7,3.8
					c0.3-0.3,0.4-0.7,0.7-1C62.5,8.7,62.8,7,62.2,5.6z M51.7,4.8c-0.6,0.1-1.1,0.3-1.6,0.8c0.1,0,0.3,0.1,0.4,0.2
					c0,0.1-0.1,0.1-0.1,0.1c0.1,0.1,0.1,0,0.2,0c0.1,0.1,0.2,0.1,0.3,0.1c0.1,0.1,0.2,0,0.2,0c0-0.1,0.1-0.2,0.1-0.3
					c0-0.1,0.1-0.2,0.2-0.2c-0.1,0.3,0.2,0,0.3,0.2C51.7,5.4,51.7,5.1,51.7,4.8z M52.1,4.8l0,0.8l0.3,0.1c0.1-0.1,0.2-0.2,0.3-0.3
					c0.1,0,0.1,0.1,0.1,0.1C53,5.8,52.6,6,52.4,6.1h0.1c0.2-0.2,0.3,0.3,0.6,0c0-0.3,0.4-0.3,0.5-0.5c-0.1,0.1-0.1,0-0.2,0
					c0-0.1,0.2-0.2,0.2-0.2C53.2,5.1,52.7,4.9,52.1,4.8z M48.9,4.7c-0.2,0.3-0.5,0.6-0.6,1c-0.3,0.5-0.4,1.1-0.5,1.6l0.5,0
					c-0.1-0.1-0.1-0.2-0.1-0.3c0.1-0.2,0.1-0.6,0.5-0.6c0.2,0,0-0.2,0.1-0.2c0.2,0,0.3-0.3,0.5-0.4c0.2,0,0.2-0.3,0.4-0.3
					C49.4,5.2,49.2,4.9,48.9,4.7z M55,4.6c-0.3,0.4-0.7,0.8-1.1,1.1c0,0,0.1,0.1,0.1,0.1c0.1-0.1,0-0.4,0.3-0.3
					c0.2,0.1,0.4,0.1,0.7,0.1c0.1,0.1,0.2,0.2,0.3,0.3c0.1,0.1,0,0.1,0,0.2c0,0,0.1,0.1,0.1,0.1c0.1-0.1,0.2-0.1,0.3-0.1
					c0.1,0,0.2,0.2,0.3,0.2c0.1,0.1,0,0.1-0.1,0.2c0,0.1-0.1,0.2-0.1,0.3c0.1,0,0.1,0,0.2-0.1c0.3-0.2,0.1-0.4,0-0.7
					c-0.1-0.2-0.3-0.3-0.5-0.4c0-0.1,0-0.1,0.1-0.2C55.5,5.1,55.1,4.9,55,4.6z M47.8,3.6L47.8,3.6c-0.9,1.1-1.4,2.3-1.5,3.7
					c0.4,0,0.8,0,1.1,0l0,0c0.1-1.1,0.5-2.1,1.2-2.8C48.3,4.2,48,3.9,47.8,3.6z M52.1,3.3c0.1,0.3,0,0.7,0,1c0.7,0,1.3,0.3,1.8,0.7
					c0.2-0.3,0.5-0.6,0.8-0.7C54,3.8,53.1,3.4,52.1,3.3z M51.7,3.3L51.7,3.3c-1,0.1-1.8,0.5-2.6,1.1c0.3,0.2,0.5,0.5,0.8,0.7
					c0.5-0.4,1.1-0.7,1.7-0.7C51.7,4.1,51.7,3.7,51.7,3.3z M42.8,3.1c-0.4,0.5-0.7,1.1-0.8,1.7C41.7,6,42.4,7,42.6,8.2
					c0.2-1.5,1.8-2.4,1.9-3.9c-0.5,0.8-1.6,1.3-1.8,2.3c0,0.2,0,0.3-0.1,0.5l0,0l0.1-0.6C42.8,5.2,42.2,4,42.8,3.1z M61,2.9
					c0.5,0.8,0.2,1.8,0.2,2.7c0,0.4,0.1,0.8,0.1,1.3c-0.1-0.2-0.1-0.3-0.1-0.5c-0.2-1-1.3-1.4-1.8-2.2c0.1,0.3,0.1,0.5,0.2,0.8
					C60,6.1,61.1,6.8,61.3,8c0.1-1.2,0.9-2.1,0.6-3.4C61.8,4,61.5,3.4,61,2.9z M46.8,2.7l0-0.1c-1.2,1.3-1.9,2.9-2,4.7l1.1,0
					c0-0.4,0.1-0.7,0.1-1.1c0.2-1.1,0.7-2,1.5-2.8L46.8,2.7z M57.1,2.5l-0.7,0.8l-0.1,0c0.1,0,0.1,0.1,0.1,0.2
					c0.3,0.2,0.4,0.5,0.7,0.8c0.1,0.2,0.3,0.4,0.3,0.7c0.4,0.7,0.5,1.5,0.6,2.3c0.4,0,0.8-0.1,1.1,0l0,0C59,5.4,58.3,3.8,57.1,2.5z
					 M48.1,3.4c0.3,0.2,0.6,0.5,0.8,0.7C49.6,3.4,50.6,3,51.7,3c0-0.3,0-0.7,0-1.1C50.3,2,49.1,2.5,48.1,3.4z M55.3,1.9
					c-0.1,0,0,0.1,0,0.1c0.2,0,0.2,0.3,0.4,0.2l0-0.2C55.6,1.8,55.4,1.9,55.3,1.9z M52.1,1.9c0.1,0.3,0,0.8,0,1.1
					c0.9,0,1.7,0.3,2.4,0.8c-0.1,0-0.1-0.2-0.1-0.3h0c0-0.1-0.2-0.2-0.1-0.3c0.2,0,0.3,0.2,0.4,0.4c0.5,0,0.2,0.6,0.6,0.7
					c0.1,0,0,0.2,0.1,0.2c0.1,0.1,0.3,0.2,0.2,0.3c0,0.2,0.2-0.1,0.4,0.1c0.1,0.1-0.1,0.1,0,0.2c0.1,0,0.1-0.1,0.2,0
					c0,0.1,0,0.1-0.1,0.2c0,0.1,0.1,0.1,0.2,0.1c0.1,0.2,0.1,0.4,0,0.6c0.2,0.2,0,0.4-0.1,0.6C56,6.7,56,7,55.7,6.9
					c-0.1,0.1,0,0.2,0,0.3l0.4,0c-0.2-0.3,0.1-0.7,0.2-1c0,0,0.1-0.1,0.2,0c0,0.1,0,0.3,0,0.4c0.1,0.2,0.1,0.4,0.1,0.6l1.1,0
					c-0.1-0.7-0.2-1.4-0.5-2c-0.1,0-0.2,0.1-0.3,0c-0.1-0.2-0.2-0.4-0.4-0.5c-0.1,0-0.2-0.1-0.4-0.2c-0.2,0-0.2-0.3-0.4-0.3
					c-0.1-0.1-0.2-0.1-0.3-0.3c0-0.2,0-0.4-0.2-0.5c-0.1,0-0.2,0-0.2,0.1c-0.1,0.1-0.2-0.1-0.2-0.2c-0.1-0.1,0-0.2-0.1-0.4
					c-0.2-0.2-0.1-0.5-0.4-0.6c-0.5-0.2-1-0.4-1.5-0.5C52.6,1.9,52.3,1.9,52.1,1.9z M43.2,2.7c-0.6,0.8-0.1,2-0.3,3
					c0.2-0.4,0.6-0.8,0.9-1.1c0.8-0.5,1.5-1.3,1.5-2.2c-0.4,1.1-1.8,1.2-2.1,2.3h0c0.5-0.9,0.2-2.3,1.2-3
					C43.9,1.9,43.4,2.2,43.2,2.7z M59.4,1.6c0.7,0.5,0.7,1.4,1,2.1c0.1,0.3,0.3,0.6,0.3,0.9c-0.4-1.1-1.7-1.3-2.2-2.4l0.2,0.6
					c0.4,1.2,1.9,1.5,2.4,2.6c-0.2-0.8,0.1-1.6-0.1-2.4C60.7,2.4,60.1,1.8,59.4,1.6z M53,0.9l-0.5,0.2c-0.1,0-0.2-0.1-0.2,0.1
					c0.1,0.1,0.2,0.1,0.3,0.1c0.3-0.1,0.7,0.1,1-0.2C53.5,1,53.2,1,53,0.9z M46.4,0.7C45.7,1,45,1.2,44.5,1.8
					c-0.4,0.5-0.5,1.1-0.7,1.7L44.4,3C45.3,2.4,45.5,1.4,46.4,0.7z M57.4,0.6l0.5,0.5C58.5,2,59.2,2.8,60,3.3
					c-0.2-0.3-0.2-0.7-0.4-1.1C59.3,1.3,58.2,0.9,57.4,0.6z M47,2.3l0.8,0.8c1-1,2.4-1.6,3.8-1.6c-0.1-0.3,0-0.7,0-1.1
					C49.9,0.5,48.4,1.1,47,2.3z M52.1,0.3c0,0.3,0,0.7,0,1c0,0,0.1,0,0.1-0.1c0.1,0,0.1,0.2,0.1,0.2h0c0.5,0,1,0.1,1.5,0.2
					c0.5,0.1,0.9,0.6,1.4,0.3c0.1,0.1,0.4,0,0.4,0.2c0.2,0,0.3,0.2,0.4,0.3c0,0.2,0.1,0.2,0.2,0.4v0c0.2-0.3,0.4-0.5,0.7-0.7
					c-1-0.9-2.2-1.6-3.6-1.8C52.9,0.4,52.5,0.4,52.1,0.3z M58.5,3.9c1.4,2.3,1.1,5.9-0.6,8c-1.9,2.5-5,3.6-8.1,2.7
					c-2.8-0.7-5.1-3.4-5.4-6.3c-0.3-3,1.1-5.8,3.7-7.3c2-1.2,5.1-1.4,7.2-0.2C56.6,1.4,57.9,2.7,58.5,3.9L58.5,3.9z"/>
				<path id="Fill-37" class="st3" d="M122.5,5.1c2.4-0.1,4.7-0.4,6.8-0.8V0h-6.8V5.1"/>
				<path id="Fill-38" class="st3" d="M135.5,5.1c-1.1,0.6-2.3,1.1-3.7,1.6v5.2c2.1-1.6,3.8-3.7,5.1-6.1V4.2
					C136.4,4.5,136,4.8,135.5,5.1"/>
				<path id="Fill-39" class="st3" d="M129.3,13.4C129.3,13.4,129.3,13.4,129.3,13.4l0-5.8c-2.1,0.4-4.4,0.7-6.8,0.8v6.8
					C124.9,15,127.2,14.4,129.3,13.4"/>
				<path id="Fill-40" class="st3" d="M131.8,0v3.4c2.1-0.7,3.8-1.6,5.1-2.6V0H131.8"/>
				<path id="Fill-41" class="st4" d="M119.1,0h-6.8v4.2c2.1,0.5,4.3,0.8,6.8,0.9V0"/>
				<path id="Fill-42" class="st4" d="M109.8,3.4V0h-5.1v0.8c0.8,0.6,1.7,1.1,2.8,1.7C108.3,2.8,109,3.1,109.8,3.4"/>
				<path id="Fill-43" class="st4" d="M119.1,8.5c-2.4-0.1-4.7-0.4-6.8-0.8v5.7c2.1,1,4.3,1.7,6.8,1.9V8.5"/>
				<path id="Fill-44" class="st4" d="M109.8,11V6.4c-1.9-0.6-3.6-1.3-5.1-2.1v1.4C106.1,7.7,107.8,9.5,109.8,11"/>
				<path id="Fill-45" class="st4" d="M112.4,32.5v-3.2h6.7v-3.2h-6.7V23h6.7v-5.4c-5.7-0.5-10.8-3.2-14.4-7.4v27.9h14.4v-5.5H112.4
					"/>
				<path id="Fill-46" class="st3" d="M122.5,17.6V23h6.5v3.2h-6.5v3.2h6.5v3.2h-6.5v5.5h14.4V10.2
					C133.3,14.3,128.3,17.1,122.5,17.6"/>
			</g>
		</g>
	</g>
</g>
</svg>
